<?xml version="1.0" encoding="UTF-8"?>
<svg id="Layer_1" data-name="Layer 1" xmlns="http://www.w3.org/2000/svg" xmlns:xlink="http://www.w3.org/1999/xlink" viewBox="0 0 31.88 32">
  <defs>
    <style>
      .cls-1 {
        fill: url(#radial-gradient);
      }

      .cls-2 {
        fill: url(#linear-gradient);
      }
    </style>
    <radialGradient id="radial-gradient" cx="15.94" cy="16" fx="15.94" fy="16" r="15.94" gradientUnits="userSpaceOnUse">
      <stop offset="0" stop-color="#fff"/>
      <stop offset=".34" stop-color="#fff" stop-opacity=".99"/>
      <stop offset=".47" stop-color="#fff" stop-opacity=".96"/>
      <stop offset=".57" stop-color="#fff" stop-opacity=".92"/>
      <stop offset=".66" stop-color="#fff" stop-opacity=".85"/>
      <stop offset=".73" stop-color="#fff" stop-opacity=".76"/>
      <stop offset=".79" stop-color="#fff" stop-opacity=".65"/>
      <stop offset=".85" stop-color="#fff" stop-opacity=".52"/>
      <stop offset=".9" stop-color="#fff" stop-opacity=".37"/>
      <stop offset=".95" stop-color="#fff" stop-opacity=".2"/>
      <stop offset="1" stop-color="#fff" stop-opacity=".01"/>
      <stop offset="1" stop-color="#fff" stop-opacity="0"/>
    </radialGradient>
    <linearGradient id="linear-gradient" x1="30.76" y1="28.38" x2="32.54" y2="6.06" gradientTransform="translate(47.65) rotate(-180) scale(1 -1)" gradientUnits="userSpaceOnUse">
      <stop offset="0" stop-color="#91f230"/>
      <stop offset=".01" stop-color="#99f431"/>
      <stop offset=".05" stop-color="#a9f834"/>
      <stop offset=".09" stop-color="#b2fb35"/>
      <stop offset=".15" stop-color="#b5fc36"/>
      <stop offset=".3" stop-color="#b5d169"/>
      <stop offset=".47" stop-color="#b5a89c"/>
      <stop offset=".62" stop-color="#b587c4"/>
      <stop offset=".77" stop-color="#b56fe1"/>
      <stop offset=".89" stop-color="#b561f2"/>
      <stop offset=".99" stop-color="#b65cf9"/>
    </linearGradient>
  </defs>
  <circle class="cls-1" cx="15.94" cy="16" r="15.94"/>
  <path class="cls-2" d="M15.94,3.86c-1.83,0-2.9.84-3.35,1.63-.5.9-.84,1.98.4,4.55s1.68,3.81.59,4.11-2.13-2.81-3.76-4.7-3.66-3.76-5.64-1.68c-1.62,1.7-.69,4.11,1.09,5.39s1.88,1.19,2.93,2.52.13,2.52-.81,1.78-4.2-3.66-5.84-2.77-1.98,3.17,2.08,5.98c3.66,2.54,2.67,7.47,12.3,7.47,9.63,0,8.64-4.93,12.3-7.47,4.06-2.82,3.71-5.09,2.08-5.98s-4.9,2.03-5.84,2.77-1.86-.45-.81-1.78,1.15-1.24,2.93-2.52,2.71-3.69,1.09-5.39c-1.98-2.08-4.02-.2-5.64,1.68s-2.67,5-3.76,4.7-.6-1.63.59-4.11.9-3.65.4-4.55c-.45-.79-1.52-1.63-3.35-1.63Z"/>
</svg>