<?xml version="1.0" encoding="UTF-8"?>
<svg id="Layer_1" data-name="Layer 1" xmlns="http://www.w3.org/2000/svg" xmlns:xlink="http://www.w3.org/1999/xlink" viewBox="0 0 31.88 32">
  <defs>
    <style>
      .cls-1 {
        fill: url(#radial-gradient);
      }

      .cls-2 {
        fill: url(#linear-gradient);
        stroke: #fcfcfc;
        stroke-miterlimit: 10;
        stroke-width: .75px;
      }
    </style>
    <radialGradient id="radial-gradient" cx="15.94" cy="17.02" fx="15.94" fy="17.02" r="12.25" gradientUnits="userSpaceOnUse">
      <stop offset="0" stop-color="#fff"/>
      <stop offset=".1" stop-color="#fff" stop-opacity=".98"/>
      <stop offset=".22" stop-color="#fff" stop-opacity=".92"/>
      <stop offset=".36" stop-color="#fff" stop-opacity=".81"/>
      <stop offset=".51" stop-color="#fff" stop-opacity=".67"/>
      <stop offset=".67" stop-color="#fff" stop-opacity=".49"/>
      <stop offset=".83" stop-color="#fff" stop-opacity=".26"/>
      <stop offset="1" stop-color="#fff" stop-opacity="0"/>
      <stop offset="1" stop-color="#fff" stop-opacity="0"/>
    </radialGradient>
    <linearGradient id="linear-gradient" x1="30.35" y1="28.34" x2="32.13" y2="6.03" gradientTransform="translate(47.65) rotate(-180) scale(1 -1)" gradientUnits="userSpaceOnUse">
      <stop offset="0" stop-color="#91f230"/>
      <stop offset=".01" stop-color="#99f431"/>
      <stop offset=".05" stop-color="#a9f834"/>
      <stop offset=".09" stop-color="#b2fb35"/>
      <stop offset=".15" stop-color="#b5fc36"/>
      <stop offset=".3" stop-color="#b5d169"/>
      <stop offset=".47" stop-color="#b5a89c"/>
      <stop offset=".62" stop-color="#b587c4"/>
      <stop offset=".77" stop-color="#b56fe1"/>
      <stop offset=".89" stop-color="#b561f2"/>
      <stop offset=".99" stop-color="#b65cf9"/>
    </linearGradient>
  </defs>
  <circle class="cls-1" cx="15.94" cy="17.02" r="12.25"/>
  <path class="cls-2" d="M15.94,3.86c-1.83,0-2.9.84-3.35,1.63-.5.9-.84,1.98.4,4.55s1.68,3.81.59,4.11-2.48-2.17-3.43-4.47c-1.01-2.48-3.37-3.67-5.28-2.41s-1.33,4.14.45,5.43,2.71,2.51,3.32,3.82c1,2.16.34,2.25-.6,1.51s-4.17-4.92-6.03-3.32c-2.16,1.87.41,5.23,4.02,7.23,3.89,2.17.28,6.21,9.91,6.21,9.28,0,4.66-4.86,12.3-7.47,5.09-1.74,3.38-5.91.95-5.73-1.85.14-3.77,1.77-4.71,2.51s-2.17-.63-1.12-1.96,1.93-1.77,3.77-2.96c2.16-1.41,2.11-3.57.25-4.52s-4.12-.35-6.1,2.48c-1.43,2.04-1.89,3.95-2.98,3.65s-.6-1.63.59-4.11.9-3.65.4-4.55c-.45-.79-1.52-1.63-3.35-1.63Z"/>
</svg>